<mxfile host="app.diagrams.net" modified="2023-04-08T17:41:31.566Z" agent="Mozilla/5.0 (Windows NT 10.0; Win64; x64) AppleWebKit/537.36 (KHTML, like Gecko) Chrome/111.0.0.0 Safari/537.36" etag="ZpXsAKyh2pLcBABrAESO" version="21.1.5" type="device">
  <diagram id="C5RBs43oDa-KdzZeNtuy" name="Page-1">
    <mxGraphModel dx="1050" dy="557" grid="1" gridSize="10" guides="1" tooltips="1" connect="1" arrows="1" fold="1" page="1" pageScale="1" pageWidth="827" pageHeight="1169" math="0" shadow="0">
      <root>
        <mxCell id="WIyWlLk6GJQsqaUBKTNV-0" />
        <mxCell id="WIyWlLk6GJQsqaUBKTNV-1" parent="WIyWlLk6GJQsqaUBKTNV-0" />
        <mxCell id="iFD7pqUHEpSrsd63a7Yv-10" style="edgeStyle=orthogonalEdgeStyle;rounded=0;orthogonalLoop=1;jettySize=auto;html=1;entryX=0.5;entryY=0;entryDx=0;entryDy=0;" edge="1" parent="WIyWlLk6GJQsqaUBKTNV-1" source="iFD7pqUHEpSrsd63a7Yv-1" target="iFD7pqUHEpSrsd63a7Yv-3">
          <mxGeometry relative="1" as="geometry" />
        </mxCell>
        <mxCell id="iFD7pqUHEpSrsd63a7Yv-1" value="" style="strokeWidth=2;html=1;shape=mxgraph.flowchart.start_2;whiteSpace=wrap;fillColor=#647687;fontColor=#ffffff;strokeColor=#314354;" vertex="1" parent="WIyWlLk6GJQsqaUBKTNV-1">
          <mxGeometry x="370" y="50" width="60" height="60" as="geometry" />
        </mxCell>
        <mxCell id="iFD7pqUHEpSrsd63a7Yv-2" value="" style="strokeWidth=2;html=1;shape=mxgraph.flowchart.start_2;whiteSpace=wrap;fillColor=#647687;fontColor=#ffffff;strokeColor=#314354;" vertex="1" parent="WIyWlLk6GJQsqaUBKTNV-1">
          <mxGeometry x="370" y="830" width="60" height="60" as="geometry" />
        </mxCell>
        <mxCell id="iFD7pqUHEpSrsd63a7Yv-11" style="edgeStyle=orthogonalEdgeStyle;rounded=0;orthogonalLoop=1;jettySize=auto;html=1;" edge="1" parent="WIyWlLk6GJQsqaUBKTNV-1" source="iFD7pqUHEpSrsd63a7Yv-3" target="iFD7pqUHEpSrsd63a7Yv-4">
          <mxGeometry relative="1" as="geometry" />
        </mxCell>
        <mxCell id="iFD7pqUHEpSrsd63a7Yv-3" value="&quot;Ingrese el primer numero: &quot; num1" style="shape=parallelogram;html=1;strokeWidth=2;perimeter=parallelogramPerimeter;whiteSpace=wrap;rounded=1;arcSize=12;size=0.23;fillColor=#dae8fc;strokeColor=#6c8ebf;" vertex="1" parent="WIyWlLk6GJQsqaUBKTNV-1">
          <mxGeometry x="232" y="150" width="336" height="70" as="geometry" />
        </mxCell>
        <mxCell id="iFD7pqUHEpSrsd63a7Yv-12" style="edgeStyle=orthogonalEdgeStyle;rounded=0;orthogonalLoop=1;jettySize=auto;html=1;" edge="1" parent="WIyWlLk6GJQsqaUBKTNV-1" source="iFD7pqUHEpSrsd63a7Yv-4" target="iFD7pqUHEpSrsd63a7Yv-5">
          <mxGeometry relative="1" as="geometry" />
        </mxCell>
        <mxCell id="iFD7pqUHEpSrsd63a7Yv-4" value="&quot;Ingrese el segundo numero: &quot; num2" style="shape=parallelogram;html=1;strokeWidth=2;perimeter=parallelogramPerimeter;whiteSpace=wrap;rounded=1;arcSize=12;size=0.23;fillColor=#dae8fc;strokeColor=#6c8ebf;" vertex="1" parent="WIyWlLk6GJQsqaUBKTNV-1">
          <mxGeometry x="232" y="260" width="336" height="70" as="geometry" />
        </mxCell>
        <mxCell id="iFD7pqUHEpSrsd63a7Yv-13" style="edgeStyle=orthogonalEdgeStyle;rounded=0;orthogonalLoop=1;jettySize=auto;html=1;" edge="1" parent="WIyWlLk6GJQsqaUBKTNV-1" source="iFD7pqUHEpSrsd63a7Yv-5" target="iFD7pqUHEpSrsd63a7Yv-6">
          <mxGeometry relative="1" as="geometry" />
        </mxCell>
        <mxCell id="iFD7pqUHEpSrsd63a7Yv-5" value="suma = num1 +num2" style="rounded=1;whiteSpace=wrap;html=1;absoluteArcSize=1;arcSize=14;strokeWidth=2;fillColor=#dae8fc;strokeColor=#6c8ebf;" vertex="1" parent="WIyWlLk6GJQsqaUBKTNV-1">
          <mxGeometry x="270" y="390" width="260" height="50" as="geometry" />
        </mxCell>
        <mxCell id="iFD7pqUHEpSrsd63a7Yv-14" style="edgeStyle=orthogonalEdgeStyle;rounded=0;orthogonalLoop=1;jettySize=auto;html=1;" edge="1" parent="WIyWlLk6GJQsqaUBKTNV-1" source="iFD7pqUHEpSrsd63a7Yv-6" target="iFD7pqUHEpSrsd63a7Yv-7">
          <mxGeometry relative="1" as="geometry" />
        </mxCell>
        <mxCell id="iFD7pqUHEpSrsd63a7Yv-6" value="resta = num1 -num2" style="rounded=1;whiteSpace=wrap;html=1;absoluteArcSize=1;arcSize=14;strokeWidth=2;fillColor=#dae8fc;strokeColor=#6c8ebf;" vertex="1" parent="WIyWlLk6GJQsqaUBKTNV-1">
          <mxGeometry x="270" y="480" width="260" height="50" as="geometry" />
        </mxCell>
        <mxCell id="iFD7pqUHEpSrsd63a7Yv-15" style="edgeStyle=orthogonalEdgeStyle;rounded=0;orthogonalLoop=1;jettySize=auto;html=1;" edge="1" parent="WIyWlLk6GJQsqaUBKTNV-1" source="iFD7pqUHEpSrsd63a7Yv-7" target="iFD7pqUHEpSrsd63a7Yv-9">
          <mxGeometry relative="1" as="geometry" />
        </mxCell>
        <mxCell id="iFD7pqUHEpSrsd63a7Yv-7" value="producto = num1 * num2" style="rounded=1;whiteSpace=wrap;html=1;absoluteArcSize=1;arcSize=14;strokeWidth=2;fillColor=#dae8fc;strokeColor=#6c8ebf;" vertex="1" parent="WIyWlLk6GJQsqaUBKTNV-1">
          <mxGeometry x="270" y="570" width="260" height="50" as="geometry" />
        </mxCell>
        <mxCell id="iFD7pqUHEpSrsd63a7Yv-16" style="edgeStyle=orthogonalEdgeStyle;rounded=0;orthogonalLoop=1;jettySize=auto;html=1;" edge="1" parent="WIyWlLk6GJQsqaUBKTNV-1" source="iFD7pqUHEpSrsd63a7Yv-9" target="iFD7pqUHEpSrsd63a7Yv-2">
          <mxGeometry relative="1" as="geometry" />
        </mxCell>
        <mxCell id="iFD7pqUHEpSrsd63a7Yv-9" value="&quot;la suma de los numeros es: &quot; . suma &quot;,&quot;&lt;br&gt;&quot;La resta: &quot; . resta &quot;y&quot;&amp;nbsp;&lt;br&gt;&quot;El producto: &quot; . producto" style="strokeWidth=2;html=1;shape=mxgraph.flowchart.document2;whiteSpace=wrap;size=0.25;fillColor=#dae8fc;strokeColor=#6c8ebf;" vertex="1" parent="WIyWlLk6GJQsqaUBKTNV-1">
          <mxGeometry x="237.5" y="670" width="325" height="120" as="geometry" />
        </mxCell>
      </root>
    </mxGraphModel>
  </diagram>
</mxfile>
